<svg width="200" height="200" viewBox="0 0 200 200" fill="none" xmlns="http://www.w3.org/2000/svg">
<path d="M139.417 17.2085H60.5832C55.3551 17.5225 50.462 19.8868 46.9669 23.7876C43.4717 27.6884 41.6569 32.8107 41.9166 38.0418V161.958C41.6569 167.19 43.4717 172.312 46.9669 176.213C50.462 180.114 55.3551 182.478 60.5832 182.792H139.417C144.645 182.478 149.538 180.114 153.033 176.213C156.528 172.312 158.343 167.19 158.083 161.958V38.0418C158.343 32.8107 156.528 27.6884 153.033 23.7876C149.538 19.8868 144.645 17.5225 139.417 17.2085ZM149.75 161.958C150.004 164.979 149.065 167.98 147.133 170.317C145.202 172.653 142.431 174.14 139.417 174.458H60.5832C57.5683 174.14 54.7981 172.653 52.8665 170.317C50.9349 167.98 49.9956 164.979 50.2499 161.958V38.0418C49.9956 35.0208 50.9349 32.0204 52.8665 29.6838C54.7981 27.3471 57.5683 25.8602 60.5832 25.5418H73.3332V29.7918C73.3332 32.002 74.2112 34.1216 75.774 35.6844C77.3368 37.2472 79.4564 38.1252 81.6666 38.1252H118.333C120.543 38.1252 122.663 37.2472 124.226 35.6844C125.789 34.1216 126.667 32.002 126.667 29.7918V25.5418H139.417C142.431 25.8602 145.202 27.3471 147.133 29.6838C149.065 32.0204 150.004 35.0208 149.75 38.0418V161.958Z" fill="black"/>
<path d="M83.3332 157.784H116.667C117.772 157.784 118.831 157.345 119.613 156.563C120.394 155.782 120.833 154.722 120.833 153.617C120.833 152.512 120.394 151.452 119.613 150.671C118.831 149.889 117.772 149.45 116.667 149.45H83.3332C82.2281 149.45 81.1683 149.889 80.3869 150.671C79.6055 151.452 79.1665 152.512 79.1665 153.617C79.1665 154.722 79.6055 155.782 80.3869 156.563C81.1683 157.345 82.2281 157.784 83.3332 157.784Z" fill="black"/>
</svg>
