<svg width="140" height="140" viewBox="0 0 140 140" fill="none" xmlns="http://www.w3.org/2000/svg">
<g clip-path="url(#clip0_2631_1279)">
<mask id="mask0_2631_1279" style="mask-type:luminance" maskUnits="userSpaceOnUse" x="0" y="0" width="140" height="140">
<path d="M140 0H0V140H140V0Z" fill="white"/>
</mask>
<g mask="url(#mask0_2631_1279)">
<path d="M122.667 105.333V52.8333H41V105.333H122.667ZM122.667 23.6667C125.761 23.6667 128.728 24.8958 130.916 27.0838C133.104 29.2717 134.333 32.2391 134.333 35.3333V105.333C134.333 108.428 133.104 111.395 130.916 113.583C128.728 115.771 125.761 117 122.667 117H41C37.9058 117 34.9383 115.771 32.7504 113.583C30.5625 111.395 29.3333 108.428 29.3333 105.333V35.3333C29.3333 32.2391 30.5625 29.2717 32.7504 27.0838C34.9383 24.8958 37.9058 23.6667 41 23.6667H46.8333V12H58.5V23.6667H105.167V12H116.833V23.6667H122.667ZM102.425 70.6833L76.525 96.5833L60.8917 80.95L67.075 74.7667L76.525 84.2167L96.2417 64.5L102.425 70.6833ZM17.6667 128.667H99.3333V140.333H17.6667C14.5725 140.333 11.605 139.104 9.41709 136.916C7.22916 134.728 6 131.761 6 128.667V58.6667H17.6667V128.667Z" fill="#F186E3"/>
</g>
</g>
<defs>
<clipPath id="clip0_2631_1279">
<rect width="140" height="140" fill="white"/>
</clipPath>
</defs>
</svg>
