<svg width="140" height="140" viewBox="0 0 140 140" fill="none" xmlns="http://www.w3.org/2000/svg">
<path d="M131.25 36.5311C128.625 36.5311 126.219 38.7186 126.219 41.5624V58.8436H92.3125C86.625 58.8436 81.8125 63.6561 81.8125 69.3436V80.4999C81.8125 84.4374 84 87.9374 87.2812 89.6874V108.281C87.2812 110.906 89.4687 113.312 92.3125 113.312C95.1562 113.312 97.3437 111.125 97.3437 108.281V90.9999H126.437V108.281C126.437 110.906 128.625 113.312 131.469 113.312C134.312 113.312 136.5 111.125 136.5 108.281V41.3436C136.281 38.7186 133.875 36.5311 131.25 36.5311ZM91.6562 69.1249C91.6562 68.6874 91.875 68.4686 92.3125 68.4686H126.437V80.9374H92.3125C91.875 80.9374 91.6562 80.7186 91.6562 80.2811V69.1249Z" fill="#FF5F5F"/>
<path d="M67.375 41.1249L16.4063 27.1249C13.5625 26.2499 10.5 26.9061 7.875 28.8749C5.25 30.8436 3.71875 33.9061 3.71875 37.4061V48.1249C3.71875 52.9374 6.78125 57.0936 11.1563 58.1874L14.875 59.2811V108.281C14.875 110.906 17.0625 113.312 19.9063 113.312C22.75 113.312 24.9375 111.125 24.9375 108.281V61.9061L54.0313 69.9999V108.281C54.0313 110.906 56.2188 113.312 59.0625 113.312C61.9063 113.312 64.0938 111.125 64.0938 108.281V72.4061C64.5313 72.4061 64.75 72.4061 65.1875 72.4061C67.375 72.4061 69.3438 71.7499 71.0938 70.4374C73.7188 68.4686 75.25 65.4061 75.25 61.9061V51.1874C75.0313 46.5936 71.75 42.4374 67.375 41.1249ZM65.1875 62.1249C65.1875 62.5624 64.9688 62.7811 64.9688 62.7811L14 48.7811C14 48.7811 13.7813 48.5624 13.7813 48.1249V37.4061C13.7813 36.9686 14 36.7499 14 36.7499L64.9688 50.7499C64.9688 50.7499 65.1875 50.9686 65.1875 51.4061V62.1249Z" fill="#FF5F5F"/>
</svg>
