<svg width="140" height="140" viewBox="0 0 140 140" fill="none" xmlns="http://www.w3.org/2000/svg">
<path d="M118 20H21.75C19.4294 20 17.2038 20.9219 15.5628 22.5628C13.9219 24.2038 13 26.4294 13 28.75V116.25C12.9995 116.996 13.1898 117.73 13.5528 118.382C13.9158 119.034 14.4396 119.582 15.0742 119.974C15.7088 120.367 16.4332 120.59 17.1786 120.624C17.924 120.657 18.6656 120.5 19.3328 120.166L34.875 112.389L50.4172 120.166C51.025 120.47 51.6953 120.628 52.375 120.628C53.0547 120.628 53.725 120.47 54.3328 120.166L69.875 112.389L85.4172 120.166C86.025 120.47 86.6953 120.628 87.375 120.628C88.0547 120.628 88.725 120.47 89.3328 120.166L104.875 112.389L120.417 120.166C121.084 120.5 121.826 120.657 122.571 120.624C123.317 120.59 124.041 120.367 124.676 119.974C125.31 119.582 125.834 119.034 126.197 118.382C126.56 117.73 126.751 116.996 126.75 116.25V28.75C126.75 26.4294 125.828 24.2038 124.187 22.5628C122.546 20.9219 120.321 20 118 20ZM118 109.173L106.833 103.584C106.225 103.28 105.555 103.122 104.875 103.122C104.195 103.122 103.525 103.28 102.917 103.584L87.375 111.361L71.8328 103.584C71.225 103.28 70.5547 103.122 69.875 103.122C69.1953 103.122 68.525 103.28 67.9172 103.584L52.375 111.361L36.8328 103.584C36.225 103.28 35.5547 103.122 34.875 103.122C34.1953 103.122 33.525 103.28 32.9172 103.584L21.75 109.173V28.75H118V109.173ZM32.9172 89.541C33.4313 89.798 33.9912 89.952 34.5647 89.993C35.1383 90.034 35.7143 89.961 36.2598 89.779C36.8052 89.597 37.3096 89.31 37.7438 88.933C38.1781 88.556 38.5338 88.097 38.7906 87.583L41.9516 81.25H62.7984L65.9594 87.583C66.2165 88.097 66.5723 88.556 67.0067 88.932C67.441 89.309 67.9452 89.596 68.4906 89.778C69.036 89.96 69.6119 90.033 70.1853 89.992C70.7588 89.951 71.3186 89.798 71.8328 89.541C72.347 89.284 72.8056 88.928 73.1822 88.493C73.5589 88.059 73.8463 87.555 74.0281 87.009C74.2099 86.464 74.2825 85.888 74.2418 85.315C74.201 84.741 74.0477 84.181 73.7906 83.667L56.2906 48.6672C55.9278 47.9392 55.3691 47.3267 54.6775 46.8986C53.9858 46.4705 53.1884 46.2437 52.375 46.2437C51.5616 46.2437 50.7642 46.4705 50.0725 46.8986C49.3809 47.3267 48.8222 47.9392 48.4594 48.6672L30.9594 83.667C30.7019 84.181 30.5483 84.741 30.5073 85.315C30.4664 85.888 30.5389 86.464 30.7208 87.01C30.9026 87.555 31.1902 88.06 31.567 88.494C31.9439 88.928 32.4027 89.284 32.9172 89.541ZM52.375 60.4086L58.4234 72.5H46.3266L52.375 60.4086ZM74.25 68.125C74.25 66.9647 74.7109 65.8519 75.5314 65.0314C76.3519 64.2109 77.4647 63.75 78.625 63.75H87.375V55C87.375 53.8397 87.8359 52.7269 88.6564 51.9064C89.4769 51.0859 90.5897 50.625 91.75 50.625C92.9103 50.625 94.0231 51.0859 94.8436 51.9064C95.6641 52.7269 96.125 53.8397 96.125 55V63.75H104.875C106.035 63.75 107.148 64.2109 107.969 65.0314C108.789 65.8519 109.25 66.9647 109.25 68.125C109.25 69.2853 108.789 70.3981 107.969 71.2186C107.148 72.0391 106.035 72.5 104.875 72.5H96.125V81.25C96.125 82.41 95.6641 83.523 94.8436 84.344C94.0231 85.164 92.9103 85.625 91.75 85.625C90.5897 85.625 89.4769 85.164 88.6564 84.344C87.8359 83.523 87.375 82.41 87.375 81.25V72.5H78.625C77.4647 72.5 76.3519 72.0391 75.5314 71.2186C74.7109 70.3981 74.25 69.2853 74.25 68.125Z" fill="#5CBB63"/>
</svg>
