<svg  width="114" height="88" viewBox="0 0 114 88" fill="none" xmlns="http://www.w3.org/2000/svg">
<path style="fill:#A167DC"  d="M0 0V8.75H96.25V78.75H35V87.5H113.75V78.75H105V0H0ZM17.5087 13.125C12.8716 13.1411 8.42889 14.9898 5.1491 18.2679C1.86931 21.5461 0.0184467 25.9879 0 30.625C0 40.2456 7.8925 48.125 17.5087 48.125C22.1436 48.1066 26.5831 46.2566 29.8596 42.9785C33.1361 39.7003 34.9839 35.2598 35 30.625C35 21.0131 27.1162 13.125 17.5087 13.125ZM43.75 17.5V26.25H65.625V17.5H43.75ZM74.375 17.5V26.25H87.5V17.5H74.375ZM17.5087 21.875C22.3825 21.875 26.25 25.7381 26.25 30.625C26.25 35.525 22.3869 39.375 17.5087 39.375C12.6087 39.375 8.75 35.525 8.75 30.625C8.75 25.7381 12.6131 21.875 17.5087 21.875ZM43.75 35V43.75H87.5V35H43.75ZM0 52.5V87.5H8.75V61.25H21.875V87.5H30.625V64.1288L39.655 68.9062C42.2144 70.2625 45.29 70.2581 47.845 68.9062V68.915L63.2887 60.7469L59.2069 53.0031L43.7587 61.1713L30.2138 54.0225C28.3234 53.0238 26.218 52.5012 24.08 52.5H0Z" fill="white"/>
</svg>
