<svg width="140" height="140" viewBox="0 0 140 140" fill="none" xmlns="http://www.w3.org/2000/svg">
<path style="fill:#FCD742" d="M108.781 5C111.174 5 113.543 5.46235 115.753 6.36065C117.964 7.25896 119.972 8.57562 121.664 10.2355C123.356 11.8953 124.698 13.8658 125.613 16.0345C126.529 18.2032 127 20.5276 127 22.875V117.125C127 119.472 126.529 121.797 125.613 123.965C124.698 126.134 123.356 128.105 121.664 129.765C119.972 131.424 117.964 132.741 115.753 133.639C113.543 134.538 111.174 135 108.781 135H39.2188C36.8257 135 34.456 134.537 32.2452 133.639C30.0344 132.74 28.0257 131.423 26.3338 129.762C24.642 128.102 23.3001 126.13 22.3849 123.961C21.4697 121.792 20.9991 119.466 21 117.119V22.875C21 14.685 26.6048 7.795 34.25 5.6695V16.375C32.236 17.857 30.9375 20.21 30.9375 22.875V117.112C30.9375 121.597 34.6475 125.237 39.2188 125.237H108.781C113.352 125.237 117.062 121.597 117.062 117.112V22.875C117.062 18.39 113.352 14.75 108.781 14.75H93.875V5H108.781ZM87.25 5V57.9035C87.25 62.759 81.95 64.579 78.7038 62.8695L78.1605 62.5315L64.0757 54.179L50.309 62.3105C46.9965 64.6505 41.4978 63.2205 40.9214 58.6835L40.875 57.91V5H87.25ZM77.3125 14.75H50.8125V50.6495L61.2336 44.481C62.0639 44.0479 62.9848 43.8086 63.9247 43.7815C64.8646 43.7545 65.7982 43.9404 66.6529 44.325L77.3191 50.656V14.75H77.3125Z" fill="white"/>
</svg>
