<svg width="62" height="62" viewBox="0 0 62 62" fill="none" xmlns="http://www.w3.org/2000/svg">
<g clip-path="url(#clip0_2618_1360)">
<path d="M19.077 33.3847C18.4446 33.3847 17.838 33.1335 17.3908 32.6863C16.9436 32.2391 16.6924 31.6325 16.6924 31.0001C16.6924 30.3677 16.9436 29.7611 17.3908 29.3139C17.838 28.8667 18.4446 28.6155 19.077 28.6155H42.9232C43.5556 28.6155 44.1621 28.8667 44.6093 29.3139C45.0565 29.7611 45.3078 30.3677 45.3078 31.0001C45.3078 31.6325 45.0565 32.2391 44.6093 32.6863C44.1621 33.1335 43.5556 33.3847 42.9232 33.3847H19.077Z" fill="#87D229"/>
<path d="M31.0003 23.8462C32.9757 23.8462 34.5772 22.2448 34.5772 20.2693C34.5772 18.2938 32.9757 16.6924 31.0003 16.6924C29.0248 16.6924 27.4233 18.2938 27.4233 20.2693C27.4233 22.2448 29.0248 23.8462 31.0003 23.8462Z" fill="#87D229"/>
<path d="M31.0003 45.3077C32.9757 45.3077 34.5772 43.7062 34.5772 41.7307C34.5772 39.7553 32.9757 38.1538 31.0003 38.1538C29.0248 38.1538 27.4233 39.7553 27.4233 41.7307C27.4233 43.7062 29.0248 45.3077 31.0003 45.3077Z" fill="#87D229"/>
<path fill-rule="evenodd" clip-rule="evenodd" d="M31 57.2308C45.4865 57.2308 57.2308 45.4865 57.2308 31C57.2308 16.5135 45.4865 4.76923 31 4.76923C16.5135 4.76923 4.76923 16.5135 4.76923 31C4.76923 45.4865 16.5135 57.2308 31 57.2308ZM31 62C48.1215 62 62 48.1215 62 31C62 13.8785 48.1215 0 31 0C13.8785 0 0 13.8785 0 31C0 48.1215 13.8785 62 31 62Z" fill="#87D229"/>
</g>
<defs>
<clipPath id="clip0_2618_1360">
<rect width="62" height="62" fill="white"/>
</clipPath>
</defs>
</svg>
