<svg width="62" height="62" viewBox="0 0 62 62" fill="none" xmlns="http://www.w3.org/2000/svg">
<path d="M53.2812 48.1348C54.6133 48.8008 55.8141 49.6182 56.8838 50.5869C57.9534 51.5557 58.8617 52.6354 59.6084 53.8262C60.3551 55.0169 60.9404 56.3086 61.3643 57.7012C61.7881 59.0938 62 60.5267 62 62H58.125C58.125 60.4056 57.8223 58.902 57.2168 57.4893C56.6113 56.0765 55.7839 54.8454 54.7344 53.7959C53.6849 52.7464 52.4437 51.9089 51.0107 51.2832C49.5778 50.6576 48.0742 50.3548 46.5 50.375C44.8854 50.375 43.3818 50.6777 41.9893 51.2832C40.5967 51.8887 39.3656 52.7161 38.2959 53.7656C37.2262 54.8151 36.3887 56.0563 35.7832 57.4893C35.1777 58.9222 34.875 60.4258 34.875 62H31C31 60.5267 31.2018 59.0938 31.6055 57.7012C32.0091 56.3086 32.5944 55.0169 33.3613 53.8262C34.1283 52.6354 35.0466 51.5557 36.1162 50.5869C37.1859 49.6182 38.3867 48.8008 39.7188 48.1348C38.2051 47.0449 37.0244 45.6826 36.1768 44.0479C35.3291 42.4131 34.8952 40.6471 34.875 38.75C34.875 37.1556 35.1777 35.652 35.7832 34.2393C36.3887 32.8265 37.2161 31.5954 38.2656 30.5459C39.3151 29.4964 40.5462 28.6589 41.959 28.0332C43.3717 27.4076 44.8854 27.1048 46.5 27.125C48.0944 27.125 49.598 27.4277 51.0107 28.0332C52.4235 28.6387 53.6546 29.4661 54.7041 30.5156C55.7536 31.5651 56.5911 32.8063 57.2168 34.2393C57.8424 35.6722 58.1452 37.1758 58.125 38.75C58.125 40.6471 57.7012 42.4131 56.8535 44.0479C56.0059 45.6826 54.8151 47.0449 53.2812 48.1348ZM46.5 46.5C47.5697 46.5 48.5687 46.2982 49.4971 45.8945C50.4255 45.4909 51.2529 44.9359 51.9795 44.2295C52.7061 43.5231 53.2611 42.7057 53.6445 41.7773C54.028 40.849 54.2298 39.8398 54.25 38.75C54.25 37.6803 54.0482 36.6813 53.6445 35.7529C53.2409 34.8245 52.6859 33.9971 51.9795 33.2705C51.2731 32.5439 50.4557 31.9889 49.5273 31.6055C48.599 31.222 47.5898 31.0202 46.5 31C45.4303 31 44.4313 31.2018 43.5029 31.6055C42.5745 32.0091 41.7471 32.5641 41.0205 33.2705C40.2939 33.9769 39.7389 34.7943 39.3555 35.7227C38.972 36.651 38.7702 37.6602 38.75 38.75C38.75 39.8197 38.9518 40.8187 39.3555 41.7471C39.7591 42.6755 40.3141 43.5029 41.0205 44.2295C41.7269 44.9561 42.5443 45.5111 43.4727 45.8945C44.401 46.278 45.4102 46.4798 46.5 46.5ZM31 48.9219C30.3542 49.6686 29.7689 50.4456 29.2441 51.2529C28.7194 52.0602 28.2552 52.9281 27.8516 53.8564C26.7819 52.7464 25.4902 51.8887 23.9766 51.2832C22.4629 50.6777 20.929 50.375 19.375 50.375H7.75V11.625H3.875V54.25H27.7002C27.4176 54.8757 27.1855 55.5114 27.0039 56.1572C26.8223 56.8031 26.6709 57.459 26.5498 58.125H0V7.75H7.75V3.875H19.375C21.151 3.875 22.8564 4.14746 24.4912 4.69238C26.126 5.2373 27.6497 6.05469 29.0625 7.14453C30.4551 6.05469 31.9688 5.2373 33.6035 4.69238C35.2383 4.14746 36.9538 3.875 38.75 3.875H50.375V7.75H58.125V27.125C56.9544 25.9746 55.6628 25.016 54.25 24.249V11.625H50.375V22.7959C49.7292 22.6143 49.0833 22.4831 48.4375 22.4023C47.7917 22.3216 47.1458 22.2812 46.5 22.2812V7.75H38.75C37.3372 7.75 35.9648 7.99219 34.6328 8.47656C33.3008 8.96094 32.0898 9.67741 31 10.626V48.9219ZM27.125 48.5283V10.626C26.0352 9.69759 24.8242 8.99121 23.4922 8.50684C22.1602 8.02246 20.7878 7.77018 19.375 7.75H11.625V46.5H19.375C20.7272 46.5 22.0592 46.6716 23.3711 47.0146C24.6829 47.3577 25.9342 47.8623 27.125 48.5283Z" fill="#3E96FF"/>
</svg>
