<svg width="140" height="140" viewBox="0 0 140 140" fill="none" xmlns="http://www.w3.org/2000/svg">
<g clip-path="url(#clip0_2520_1283)">
<path style="fill:#FFBC5F" d="M69.9987 67.1111C75.9361 67.119 81.7424 65.3657 86.6829 62.0729C91.6235 58.78 95.4764 54.0957 97.754 48.6126C100.032 43.1295 100.632 37.094 99.4783 31.2698C98.3249 25.4456 95.4698 20.0943 91.2742 15.8932C87.0787 11.692 81.7313 8.82974 75.9086 7.66849C70.0859 6.50724 64.0497 7.0992 58.5635 9.36949C53.0773 11.6398 48.3879 15.4863 45.0884 20.4225C41.789 25.3587 40.0278 31.1626 40.0278 37.1C40.0278 45.0524 43.1842 52.6798 48.8037 58.3068C54.4231 63.9338 62.0462 67.1004 69.9987 67.1111ZM70.0019 16.8277C74.0068 16.8204 77.9238 18.0018 81.2568 20.2222C84.5899 22.4427 87.189 25.6023 88.725 29.301C90.261 32.9996 90.6648 37.071 89.8853 40.9993C89.1057 44.9276 87.1779 48.5363 84.346 51.3682C81.5141 54.2001 77.9055 56.1279 73.9772 56.9074C70.0488 57.6869 65.9775 57.2831 62.2788 55.7471C58.5802 54.2111 55.4205 51.612 53.2001 48.279C50.9796 44.9459 49.7983 41.0289 49.8056 37.024C49.8154 31.6706 51.9464 26.5393 55.7318 22.7539C59.5172 18.9685 64.6485 16.8375 70.0019 16.8277Z" fill="white" stroke="white" stroke-width="2"/>
<path style="fill:#FFBC5F" d="M69.9801 81.772L69.9969 81.7724L70.0136 81.7722C81.7394 81.6142 93.2806 84.7016 103.361 90.693L104.069 91.1136L104.618 90.4999L109.868 84.6276L110.656 83.7456L109.655 83.115C97.7914 75.6424 84.028 71.7415 70.0079 71.8777C59.7448 71.6188 49.5509 73.626 40.1519 77.7563C30.7476 81.8891 22.3708 88.0456 15.6187 95.7872L15.5999 95.8087L15.5824 95.8312C14.9303 96.6713 14.5698 97.7012 14.5558 98.7646H14.5557V98.7778V124.005C14.5003 126.383 15.3876 128.687 17.0243 130.414C18.664 132.143 20.9222 133.153 23.3046 133.222L23.319 133.222H23.3334H71.5168H73.8461L72.2418 131.533L64.8529 123.756L64.5615 123.449L64.1384 123.445L24.3334 123.027V100.619C30.1873 94.5538 37.2224 89.7511 45.0058 86.508C52.9118 83.2138 61.4169 81.601 69.9801 81.772Z" fill="white" stroke="white" stroke-width="2"/>
<path style="fill:#FFBC5F" d="M115.667 110.672V123.556H104.417H103.971L103.673 123.887L96.6732 131.664L95.1711 133.333H97.4165H116.667H116.681L116.696 133.333C119.047 133.264 121.279 132.279 122.914 130.587C124.548 128.896 125.456 126.632 125.444 124.281V102V99.3873L123.7 101.332L115.922 110.005L115.667 110.289V110.672Z" fill="white" stroke="white" stroke-width="2"/>
<path  style="fill:#FFBC5F" d="M135.859 71.6791L135.851 71.6714L135.843 71.6639C134.876 70.8034 133.608 70.3613 132.315 70.4346C131.023 70.5079 129.813 71.0907 128.95 72.0551L128.949 72.0556L84.4911 121.793L65.0292 100.872C64.6146 100.392 64.1104 99.9964 63.5447 99.7087C62.9724 99.4176 62.3484 99.242 61.7083 99.1921C61.0682 99.1421 60.4245 99.2188 59.814 99.4176C59.2035 99.6165 58.6381 99.9336 58.1502 100.351L58.1386 100.361L58.1273 100.371C57.6494 100.806 57.2623 101.331 56.9886 101.917C56.7149 102.502 56.56 103.136 56.5327 103.781C56.5054 104.427 56.6064 105.071 56.8297 105.678C57.0531 106.284 57.3944 106.84 57.834 107.313L57.8343 107.314L83.851 135.314L84.5973 136.117L85.3286 135.3L136.234 78.4446L136.242 78.4353L136.251 78.4257C137.067 77.4671 137.481 76.2307 137.408 74.9739C137.336 73.7172 136.781 72.537 135.859 71.6791Z" fill="white" stroke="white" stroke-width="2"/>
</g>
<defs>
<clipPath id="clip0_2520_1283">
<rect width="140" height="140" fill="white"/>
</clipPath>
</defs>
</svg>
