<svg width="140" height="140" viewBox="0 0 140 140" fill="none" xmlns="http://www.w3.org/2000/svg">
<path fill-rule="evenodd" clip-rule="evenodd" d="M27 66.7143C27 64.9335 27.7184 63.2258 28.9969 61.9665C30.2756 60.7074 32.0098 60 33.8181 60H40.6364C42.4447 60 44.1789 60.7074 45.4576 61.9665C46.7362 63.2258 47.4545 64.9335 47.4545 66.7143V73.4287C47.4545 75.2095 46.7362 76.9173 45.4576 78.1765C44.1789 79.4356 42.4447 80.143 40.6364 80.143H33.8181C32.0098 80.143 30.2756 79.4356 28.9969 78.1765C27.7184 76.9173 27 75.2095 27 73.4287V66.7143ZM40.6364 66.7143V73.4287H33.8181V66.7143H40.6364ZM61.0909 60C59.2826 60 57.5483 60.7074 56.2697 61.9665C54.991 63.2258 54.2727 64.9335 54.2727 66.7143V73.4287C54.2727 75.2095 54.991 76.9173 56.2697 78.1765C57.5483 79.4356 59.2826 80.143 61.0909 80.143H67.9091C69.7174 80.143 71.4516 79.4356 72.7303 78.1765C74.009 76.9173 74.7272 75.2095 74.7272 73.4287V66.7143C74.7272 64.9335 74.009 63.2258 72.7303 61.9665C71.4516 60.7074 69.7174 60 67.9091 60H61.0909ZM67.9091 66.7143H61.0909V73.4287H67.9091V66.7143ZM81.5455 66.7143C81.5455 64.9335 82.2638 63.2258 83.5424 61.9665C84.8211 60.7074 86.5553 60 88.3636 60H95.1817C96.99 60 98.7244 60.7074 100.003 61.9665C101.282 63.2258 102 64.9335 102 66.7143V73.4287C102 75.2095 101.282 76.9173 100.003 78.1765C98.7244 79.4356 96.99 80.143 95.1817 80.143H88.3636C86.5553 80.143 84.8211 79.4356 83.5424 78.1765C82.2638 76.9173 81.5455 75.2095 81.5455 73.4287V66.7143ZM88.3636 66.7143H95.1817V73.4287H88.3636V66.7143ZM33.8181 86.857C32.0098 86.857 30.2756 87.5649 28.9969 88.8241C27.7184 90.0833 27 91.7914 27 93.5721V100.286C27 102.067 27.7184 103.775 28.9969 105.034C30.2756 106.293 32.0098 107 33.8181 107H40.6364C42.4447 107 44.1789 106.293 45.4576 105.034C46.7362 103.775 47.4545 102.067 47.4545 100.286V93.5721C47.4545 91.7914 46.7362 90.0833 45.4576 88.8241C44.1789 87.5649 42.4447 86.857 40.6364 86.857H33.8181ZM33.8181 93.5721V100.286H40.6364V93.5721H33.8181ZM54.2727 93.5721C54.2727 91.7914 54.991 90.0833 56.2697 88.8241C57.5483 87.5649 59.2826 86.857 61.0909 86.857H67.9091C69.7174 86.857 71.4516 87.5649 72.7303 88.8241C74.009 90.0833 74.7272 91.7914 74.7272 93.5721V100.286C74.7272 102.067 74.009 103.775 72.7303 105.034C71.4516 106.293 69.7174 107 67.9091 107H61.0909C59.2826 107 57.5483 106.293 56.2697 105.034C54.991 103.775 54.2727 102.067 54.2727 100.286V93.5721ZM61.0909 93.5721H67.9091V100.286H61.0909V93.5721Z" fill="#CBBE8E"/>
<path d="M111.346 98C112.235 98 113.086 98.3644 113.714 99.0137C114.341 99.6631 114.694 100.544 114.694 101.463V108.685L117.06 111.132C117.669 111.785 118.007 112.66 118 113.568C117.992 114.475 117.64 115.344 117.019 115.986C116.399 116.627 115.559 116.992 114.681 117C113.804 117.007 112.959 116.658 112.327 116.028L108 111.551V101.463C108 100.544 108.352 99.6631 108.98 99.0137C109.608 98.3644 110.459 98 111.346 98Z" fill="#CBBE8E"/>
<path fill-rule="evenodd" clip-rule="evenodd" d="M33.5003 11.4167C33.5003 10.5105 33.8603 9.64152 34.5011 9.00075C35.1418 8.35998 36.0108 8 36.917 8C37.8231 8 38.6922 8.35998 39.333 9.00075C39.9737 9.64152 40.3337 10.5105 40.3337 11.4167V28.5C40.3337 29.4061 39.9737 30.2752 39.333 30.916C38.6922 31.5567 37.8231 31.9167 36.917 31.9167C36.0108 31.9167 35.1418 31.5567 34.5011 30.916C33.8603 30.2752 33.5003 29.4061 33.5003 28.5V25.0833H23.2501C22.344 25.0833 21.4749 25.4433 20.8342 26.084C20.1934 26.7248 19.8334 27.5939 19.8334 28.5V42.1667H108.668V28.5C108.668 27.5939 108.308 26.7248 107.667 26.084C107.026 25.4433 106.158 25.0833 105.251 25.0833H95.0011V18.25H105.251C107.97 18.25 110.577 19.3299 112.499 21.2521C114.421 23.1745 115.501 25.7816 115.501 28.5V83.4058C121.486 84.2708 126.921 87.3701 130.713 92.0805C134.505 96.7908 136.372 102.762 135.938 108.793C135.506 114.824 132.805 120.468 128.379 124.588C123.953 128.708 118.131 130.999 112.084 131C108.229 131.002 104.429 130.071 101.011 128.287C97.5926 126.502 94.6573 123.916 92.4557 120.75H23.2501C20.5317 120.75 17.9245 119.67 16.0022 117.748C14.08 115.825 13 113.219 13 110.5V28.5C13 25.7816 14.08 23.1745 16.0022 21.2521C17.9245 19.3299 20.5317 18.25 23.2501 18.25H33.5003V11.4167ZM88.1677 107.083C88.1669 101.331 90.239 95.7716 94.004 91.4233C97.769 87.0749 102.975 84.2282 108.668 83.4058V49H19.8334V110.5C19.8334 111.407 20.1934 112.275 20.8342 112.915C21.4749 113.556 22.344 113.917 23.2501 113.917H89.1585C88.4995 111.698 88.1658 109.397 88.1677 107.083ZM112.084 124.167C116.615 124.167 120.96 122.367 124.164 119.163C127.368 115.959 129.169 111.614 129.169 107.083C129.169 102.553 127.368 98.207 124.164 95.0032C120.96 91.7993 116.615 90 112.084 90C107.554 90 103.209 91.7993 100.005 95.0032C96.8011 98.207 95.0011 102.553 95.0011 107.083C95.0011 111.614 96.8011 115.959 100.005 119.163C103.209 122.367 107.554 124.167 112.084 124.167Z" fill="#CBBE8E"/>
<path d="M83.5833 32C82.6772 32 81.8081 31.6388 81.1673 30.9958C80.5267 30.3528 80.1667 29.4807 80.1667 28.5714V25.1428H46V18.2857H80.1667V11.4286C80.1667 10.5192 80.5267 9.64724 81.1673 9.00424C81.8081 8.36124 82.6772 8 83.5833 8C84.4895 8 85.3586 8.36124 85.9993 9.00424C86.64 9.64724 87 10.5192 87 11.4286V28.5714C87 29.4807 86.64 30.3528 85.9993 30.9958C85.3586 31.6388 84.4895 32 83.5833 32Z" fill="#CBBE8E"/>
</svg>
