<svg width="119" height="113" viewBox="0 0 119 113" fill="none" xmlns="http://www.w3.org/2000/svg">
<path d="M21.5 30.2501L4 33.1667C8.7542 11.2509 22.5617 4.02045 36.0833 4.00005C44.8246 3.98545 53.4433 6.99255 59.4167 9.83335C65.39 6.99255 74 4.00005 82.75 4.00005C96.199 4.00005 110.079 11.2509 114.833 33.1667L97.333 30.2501C98.964 36.3751 102.548 47.1434 97.333 56.5001C88.6417 48.7038 68.5458 36.9321 59.4167 30.2501C50.2875 36.9321 30.1917 48.7038 21.5 56.5001C16.285 47.1463 19.8696 36.3751 21.5 30.2501Z" stroke="#2850C5" stroke-width="7" stroke-linecap="round" stroke-linejoin="round"/>
<path d="M59.4169 30.2529C57.2148 41.5958 54.1348 69.7242 59.4169 91.503" stroke="#2850C5" stroke-width="7" stroke-linecap="round" stroke-linejoin="round"/>
<path d="M24.416 109.003H94.4165C80.4539 95.63 73.9993 91.5179 59.416 91.5029C44.8327 91.4879 29.9343 101.367 24.416 109.003Z" stroke="#2850C5" stroke-width="7" stroke-linecap="round" stroke-linejoin="round"/>
</svg>
