<svg width="140" height="140" viewBox="0 0 140 140" fill="none" xmlns="http://www.w3.org/2000/svg">
<g clip-path="url(#clip0_2631_1270)">
<mask id="mask0_2631_1270" style="mask-type:luminance" maskUnits="userSpaceOnUse" x="0" y="0" width="140" height="140">
<path d="M140 0H0V140H140V0Z" fill="white"/>
</mask>
<g mask="url(#mask0_2631_1270)">
<path d="M23.7385 121.955L16.9734 120.775C16.7617 121.992 16.8821 123.242 17.3218 124.396C17.7615 125.549 18.5042 126.563 19.4718 127.329C20.4393 128.096 21.5957 128.587 22.8192 128.752C24.0426 128.916 25.2877 128.747 26.4233 128.263L23.7385 121.955ZM54.0304 109.065L55.9775 102.483L53.61 101.787L51.3442 102.751L54.0304 109.065ZM28.9157 92.2551L35.6808 93.4348L36.1945 90.4258L34.3183 88.0211L28.9157 92.2551ZM114.655 53.8945C119.21 75.6945 103.914 98.1939 79.2197 103.354L82.0264 116.786C113.195 110.273 134.382 81.2158 128.087 51.088L114.655 53.8945ZM26.9514 72.2197C22.3964 50.4196 37.6993 27.9189 62.3871 22.7608L59.5807 9.3287C28.4118 15.8415 7.21768 44.8996 13.5127 75.0276L26.9514 72.2197ZM62.3871 22.7608C87.0751 17.6026 110.101 32.0939 114.655 53.8945L128.087 51.088C121.793 20.9606 90.7496 2.81588 59.5807 9.3287L62.3871 22.7608ZM79.2197 103.354C71.1269 105.045 63.1705 104.604 55.9775 102.483L52.082 115.641C61.8171 118.494 72.1016 118.889 82.0264 116.786L79.2197 103.354ZM26.4233 128.263L56.7153 115.373L51.3442 102.751L21.0522 115.64L26.4247 128.27L26.4233 128.263ZM34.3183 88.0211C30.6745 83.3937 28.1575 77.9846 26.9514 72.2197L13.5127 75.0276C15.1966 83.0867 18.6874 90.3338 23.5064 96.4903L34.3183 88.0211ZM22.1574 91.0738L16.9748 120.782L30.4887 123.131L35.6659 93.431L22.1506 91.0752L22.1574 91.0738Z" fill="#A82C2C"/>
<path d="M48.8986 74.6432C52.6078 73.8683 54.9863 70.2332 54.2113 66.5241C53.4363 62.8149 49.8012 60.4363 46.092 61.2113C42.3829 61.9863 40.0044 65.6214 40.7793 69.3305C41.5544 73.0397 45.1895 75.4183 48.8986 74.6432Z" fill="#A82C2C"/>
<path d="M72.4044 69.7319C76.1135 68.9569 78.4922 65.3218 77.7171 61.6127C76.9422 57.9036 73.3071 55.5249 69.598 56.3C65.8888 57.0749 63.5102 60.71 64.2852 64.4192C65.0602 68.1283 68.6953 70.5069 72.4044 69.7319Z" fill="#A82C2C"/>
<path d="M95.9104 64.8201C99.6204 64.0451 101.998 60.4099 101.223 56.7008C100.448 52.9916 96.8137 50.6132 93.1037 51.388C89.395 52.163 87.0161 55.7981 87.791 59.5072C88.566 63.2164 92.2017 65.5951 95.9104 64.8201Z" fill="#A82C2C"/>
</g>
</g>
<defs>
<clipPath id="clip0_2631_1270">
<rect width="140" height="140" fill="white"/>
</clipPath>
</defs>
</svg>
