<svg width="31" height="30" viewBox="0 0 31 30" fill="none" xmlns="http://www.w3.org/2000/svg">
<path d="M27.9002 14.25L17.8736 4.40625C17.4377 3.98437 16.7596 3.98437 16.3236 4.40625C15.8877 4.82812 15.8877 5.48438 16.3236 5.90625L24.4611 13.9219H3.8752C3.29395 13.9219 2.80957 14.3906 2.80957 14.9531C2.80957 15.5156 3.29395 16.0312 3.8752 16.0312H24.558L16.3236 24.1406C15.8877 24.5625 15.8877 25.2188 16.3236 25.6406C16.5174 25.8281 16.808 25.9219 17.0986 25.9219C17.3893 25.9219 17.6799 25.8281 17.8736 25.5938L27.9002 15.75C28.3361 15.3281 28.3361 14.6719 27.9002 14.25Z" fill="#A3A3A3"/>
</svg>
