<svg width="190" height="46" viewBox="0 0 190 46" fill="none" xmlns="http://www.w3.org/2000/svg">
<path d="M46.64 18.5628C45.8187 18.5628 45.0827 18.4295 44.432 18.1628C43.7813 17.8961 43.2587 17.5015 42.864 16.9788C42.48 16.4561 42.2773 15.8268 42.256 15.0908H45.168C45.2107 15.5068 45.3547 15.8268 45.6 16.0508C45.8453 16.2641 46.1653 16.3708 46.56 16.3708C46.9653 16.3708 47.2853 16.2801 47.52 16.0988C47.7547 15.9068 47.872 15.6455 47.872 15.3148C47.872 15.0375 47.776 14.8081 47.584 14.6268C47.4027 14.4455 47.1733 14.2961 46.896 14.1788C46.6293 14.0615 46.2453 13.9281 45.744 13.7788C45.0187 13.5548 44.4267 13.3308 43.968 13.1068C43.5093 12.8828 43.1147 12.5521 42.784 12.1148C42.4533 11.6775 42.288 11.1068 42.288 10.4028C42.288 9.35747 42.6667 8.54147 43.424 7.95481C44.1813 7.35747 45.168 7.05881 46.384 7.05881C47.6213 7.05881 48.6187 7.35747 49.376 7.95481C50.1333 8.54147 50.5387 9.36281 50.592 10.4188H47.632C47.6107 10.0561 47.4773 9.77347 47.232 9.57081C46.9867 9.35747 46.672 9.2508 46.288 9.2508C45.9573 9.2508 45.6907 9.34147 45.488 9.52281C45.2853 9.69347 45.184 9.94414 45.184 10.2748C45.184 10.6375 45.3547 10.9201 45.696 11.1228C46.0373 11.3255 46.5707 11.5441 47.296 11.7788C48.0213 12.0241 48.608 12.2588 49.056 12.4828C49.5147 12.7068 49.9093 13.0321 50.24 13.4588C50.5707 13.8855 50.736 14.4348 50.736 15.1068C50.736 15.7468 50.5707 16.3281 50.24 16.8508C49.92 17.3735 49.4507 17.7895 48.832 18.0988C48.2133 18.4081 47.4827 18.5628 46.64 18.5628ZM64.2917 9.42681C65.4011 9.42681 66.2811 9.76281 66.9317 10.4348C67.5931 11.1068 67.9237 12.0401 67.9237 13.2348V18.4508H65.2037V13.6028C65.2037 13.0268 65.0491 12.5841 64.7397 12.2748C64.4411 11.9548 64.0251 11.7948 63.4917 11.7948C62.9584 11.7948 62.5371 11.9548 62.2277 12.2748C61.9291 12.5841 61.7797 13.0268 61.7797 13.6028V18.4508H59.0597V13.6028C59.0597 13.0268 58.9051 12.5841 58.5957 12.2748C58.2971 11.9548 57.8811 11.7948 57.3477 11.7948C56.8144 11.7948 56.3931 11.9548 56.0837 12.2748C55.7851 12.5841 55.6357 13.0268 55.6357 13.6028V18.4508H52.8997V9.52281H55.6357V10.6428C55.9131 10.2695 56.2757 9.97614 56.7237 9.7628C57.1717 9.53881 57.6784 9.42681 58.2437 9.42681C58.9157 9.42681 59.5131 9.57081 60.0357 9.85881C60.5691 10.1468 60.9851 10.5575 61.2837 11.0908C61.5931 10.6001 62.0144 10.2001 62.5477 9.89081C63.0811 9.58147 63.6624 9.42681 64.2917 9.42681ZM69.7732 13.9708C69.7732 13.0535 69.9439 12.2481 70.2852 11.5548C70.6372 10.8615 71.1119 10.3281 71.7092 9.95481C72.3066 9.58147 72.9732 9.3948 73.7092 9.3948C74.3386 9.3948 74.8879 9.5228 75.3572 9.7788C75.8372 10.0348 76.2052 10.3708 76.4612 10.7868V9.52281H79.1972V18.4508H76.4612V17.1868C76.1946 17.6028 75.8212 17.9388 75.3412 18.1948C74.8719 18.4508 74.3226 18.5788 73.6932 18.5788C72.9679 18.5788 72.3066 18.3921 71.7092 18.0188C71.1119 17.6348 70.6372 17.0961 70.2852 16.4028C69.9439 15.6988 69.7732 14.8881 69.7732 13.9708ZM76.4612 13.9868C76.4612 13.3041 76.2692 12.7655 75.8852 12.3708C75.5119 11.9761 75.0532 11.7788 74.5092 11.7788C73.9652 11.7788 73.5012 11.9761 73.1172 12.3708C72.7439 12.7548 72.5572 13.2881 72.5572 13.9708C72.5572 14.6535 72.7439 15.1975 73.1172 15.6028C73.5012 15.9975 73.9652 16.1948 74.5092 16.1948C75.0532 16.1948 75.5119 15.9975 75.8852 15.6028C76.2692 15.2081 76.4612 14.6695 76.4612 13.9868ZM84.3926 11.0108C84.7126 10.5201 85.1126 10.1361 85.5926 9.85881C86.0726 9.57081 86.6059 9.42681 87.1926 9.42681V12.3228H86.4406C85.7579 12.3228 85.2459 12.4721 84.9046 12.7708C84.5633 13.0588 84.3926 13.5708 84.3926 14.3068V18.4508H81.6566V9.52281H84.3926V11.0108ZM93.9564 16.1308V18.4508H92.5644C91.5724 18.4508 90.799 18.2108 90.2444 17.7308C89.6897 17.2401 89.4124 16.4455 89.4124 15.3468V11.7948H88.3244V9.52281H89.4124V7.34681H92.1484V9.52281H93.9404V11.7948H92.1484V15.3788C92.1484 15.6455 92.2124 15.8375 92.3404 15.9548C92.4684 16.0721 92.6817 16.1308 92.9804 16.1308H93.9564ZM97.3364 8.5948C96.8564 8.5948 96.4617 8.45614 96.1524 8.17881C95.8537 7.89081 95.7044 7.53881 95.7044 7.12281C95.7044 6.69614 95.8537 6.34414 96.1524 6.0668C96.4617 5.7788 96.8564 5.6348 97.3364 5.6348C97.8057 5.6348 98.1897 5.7788 98.4884 6.0668C98.7977 6.34414 98.9524 6.69614 98.9524 7.12281C98.9524 7.53881 98.7977 7.89081 98.4884 8.17881C98.1897 8.45614 97.8057 8.5948 97.3364 8.5948ZM98.6964 9.52281V18.4508H95.9604V9.52281H98.6964ZM106.599 9.42681C107.644 9.42681 108.476 9.76814 109.095 10.4508C109.724 11.1228 110.039 12.0508 110.039 13.2348V18.4508H107.319V13.6028C107.319 13.0055 107.164 12.5415 106.855 12.2108C106.546 11.8801 106.13 11.7148 105.607 11.7148C105.084 11.7148 104.668 11.8801 104.359 12.2108C104.05 12.5415 103.895 13.0055 103.895 13.6028V18.4508H101.159V9.52281H103.895V10.7068C104.172 10.3121 104.546 10.0028 105.015 9.7788C105.484 9.54414 106.012 9.42681 106.599 9.42681ZM115.812 9.3948C116.442 9.3948 116.991 9.5228 117.46 9.7788C117.94 10.0348 118.308 10.3708 118.564 10.7868V9.52281H121.3V18.4348C121.3 19.2561 121.135 19.9975 120.804 20.6588C120.484 21.3308 119.988 21.8641 119.316 22.2588C118.655 22.6535 117.828 22.8508 116.836 22.8508C115.514 22.8508 114.442 22.5361 113.62 21.9068C112.799 21.2881 112.33 20.4455 112.212 19.3788H114.916C115.002 19.7201 115.204 19.9868 115.524 20.1788C115.844 20.3815 116.239 20.4828 116.708 20.4828C117.274 20.4828 117.722 20.3175 118.052 19.9868C118.394 19.6668 118.564 19.1495 118.564 18.4348V17.1708C118.298 17.5868 117.93 17.9281 117.46 18.1948C116.991 18.4508 116.442 18.5788 115.812 18.5788C115.076 18.5788 114.41 18.3921 113.812 18.0188C113.215 17.6348 112.74 17.0961 112.388 16.4028C112.047 15.6988 111.876 14.8881 111.876 13.9708C111.876 13.0535 112.047 12.2481 112.388 11.5548C112.74 10.8615 113.215 10.3281 113.812 9.95481C114.41 9.58147 115.076 9.3948 115.812 9.3948ZM118.564 13.9868C118.564 13.3041 118.372 12.7655 117.988 12.3708C117.615 11.9761 117.156 11.7788 116.612 11.7788C116.068 11.7788 115.604 11.9761 115.22 12.3708C114.847 12.7548 114.66 13.2881 114.66 13.9708C114.66 14.6535 114.847 15.1975 115.22 15.6028C115.604 15.9975 116.068 16.1948 116.612 16.1948C117.156 16.1948 117.615 15.9975 117.988 15.6028C118.372 15.2081 118.564 14.6695 118.564 13.9868ZM127.392 18.5788C126.613 18.5788 125.92 18.4455 125.312 18.1788C124.704 17.9121 124.224 17.5495 123.872 17.0908C123.52 16.6215 123.322 16.0988 123.28 15.5228H125.984C126.016 15.8321 126.16 16.0828 126.416 16.2748C126.672 16.4668 126.986 16.5628 127.36 16.5628C127.701 16.5628 127.962 16.4988 128.144 16.3708C128.336 16.2321 128.432 16.0561 128.432 15.8428C128.432 15.5868 128.298 15.4001 128.032 15.2828C127.765 15.1548 127.333 15.0161 126.736 14.8668C126.096 14.7175 125.562 14.5628 125.136 14.4028C124.709 14.2321 124.341 13.9708 124.032 13.6188C123.722 13.2561 123.568 12.7708 123.568 12.1628C123.568 11.6508 123.706 11.1868 123.984 10.7708C124.272 10.3441 124.688 10.0081 125.232 9.7628C125.786 9.51747 126.442 9.3948 127.2 9.3948C128.32 9.3948 129.2 9.67214 129.84 10.2268C130.49 10.7815 130.864 11.5175 130.96 12.4348H128.432C128.389 12.1255 128.25 11.8801 128.016 11.6988C127.792 11.5175 127.493 11.4268 127.12 11.4268C126.8 11.4268 126.554 11.4908 126.384 11.6188C126.213 11.7361 126.128 11.9015 126.128 12.1148C126.128 12.3708 126.261 12.5628 126.528 12.6908C126.805 12.8188 127.232 12.9468 127.808 13.0748C128.469 13.2455 129.008 13.4161 129.424 13.5868C129.84 13.7468 130.202 14.0135 130.512 14.3868C130.832 14.7495 130.997 15.2401 131.008 15.8588C131.008 16.3815 130.858 16.8508 130.56 17.2668C130.272 17.6721 129.85 17.9921 129.296 18.2268C128.752 18.4615 128.117 18.5788 127.392 18.5788Z" fill="#5E4EC2"/>
<path d="M50.548 32.4248C50.9027 32.4808 51.2247 32.6255 51.514 32.8588C51.8127 33.0921 52.046 33.3815 52.214 33.7268C52.3913 34.0721 52.48 34.4408 52.48 34.8328C52.48 35.3275 52.354 35.7755 52.102 36.1768C51.85 36.5688 51.4813 36.8815 50.996 37.1148C50.52 37.3388 49.9553 37.4508 49.302 37.4508H45.662V27.6928H49.162C49.8247 27.6928 50.3893 27.8048 50.856 28.0288C51.3227 28.2435 51.6727 28.5375 51.906 28.9108C52.1393 29.2841 52.256 29.7041 52.256 30.1708C52.256 30.7495 52.0973 31.2301 51.78 31.6128C51.472 31.9861 51.0613 32.2568 50.548 32.4248ZM46.936 31.9068H49.078C49.6753 31.9068 50.1373 31.7668 50.464 31.4868C50.7907 31.2068 50.954 30.8195 50.954 30.3248C50.954 29.8301 50.7907 29.4428 50.464 29.1628C50.1373 28.8828 49.666 28.7428 49.05 28.7428H46.936V31.9068ZM49.19 36.4008C49.8247 36.4008 50.3193 36.2515 50.674 35.9528C51.0287 35.6541 51.206 35.2388 51.206 34.7068C51.206 34.1655 51.0193 33.7408 50.646 33.4328C50.2727 33.1155 49.7733 32.9568 49.148 32.9568H46.936V36.4008H49.19ZM61.6679 33.3208C61.6679 33.5635 61.6539 33.8201 61.6259 34.0908H55.4939C55.5406 34.8468 55.7973 35.4395 56.2639 35.8688C56.7399 36.2888 57.3139 36.4988 57.9859 36.4988C58.5366 36.4988 58.9939 36.3728 59.3579 36.1208C59.7313 35.8595 59.9926 35.5141 60.1419 35.0848H61.5139C61.3086 35.8221 60.8979 36.4241 60.2819 36.8908C59.6659 37.3481 58.9006 37.5768 57.9859 37.5768C57.2579 37.5768 56.6046 37.4135 56.0259 37.0868C55.4566 36.7601 55.0086 36.2981 54.6819 35.7008C54.3553 35.0941 54.1919 34.3941 54.1919 33.6008C54.1919 32.8075 54.3506 32.1121 54.6679 31.5148C54.9853 30.9175 55.4286 30.4601 55.9979 30.1428C56.5766 29.8161 57.2393 29.6528 57.9859 29.6528C58.7139 29.6528 59.3579 29.8115 59.9179 30.1288C60.4779 30.4461 60.9073 30.8848 61.2059 31.4448C61.5139 31.9955 61.6679 32.6208 61.6679 33.3208ZM60.3519 33.0548C60.3519 32.5695 60.2446 32.1541 60.0299 31.8088C59.8153 31.4541 59.5213 31.1881 59.1479 31.0108C58.7839 30.8241 58.3779 30.7308 57.9299 30.7308C57.2859 30.7308 56.7353 30.9361 56.2779 31.3468C55.8299 31.7575 55.5733 32.3268 55.5079 33.0548H60.3519ZM71.016 37.5488C70.372 37.5488 69.7933 37.4368 69.28 37.2128C68.776 36.9795 68.3793 36.6621 68.09 36.2608C67.8007 35.8501 67.6513 35.3788 67.642 34.8468H69C69.0467 35.3041 69.2333 35.6915 69.56 36.0088C69.896 36.3168 70.3813 36.4708 71.016 36.4708C71.6227 36.4708 72.0987 36.3215 72.444 36.0228C72.7987 35.7148 72.976 35.3228 72.976 34.8468C72.976 34.4735 72.8733 34.1701 72.668 33.9368C72.4627 33.7035 72.206 33.5261 71.898 33.4048C71.59 33.2835 71.1747 33.1528 70.652 33.0128C70.008 32.8448 69.49 32.6768 69.098 32.5088C68.7153 32.3408 68.384 32.0795 68.104 31.7248C67.8333 31.3608 67.698 30.8755 67.698 30.2688C67.698 29.7368 67.8333 29.2655 68.104 28.8548C68.3747 28.4441 68.7527 28.1268 69.238 27.9028C69.7327 27.6788 70.2973 27.5668 70.932 27.5668C71.8467 27.5668 72.5933 27.7955 73.172 28.2528C73.76 28.7101 74.0913 29.3168 74.166 30.0728H72.766C72.7193 29.6995 72.5233 29.3728 72.178 29.0928C71.8327 28.8035 71.3753 28.6588 70.806 28.6588C70.274 28.6588 69.84 28.7988 69.504 29.0788C69.168 29.3495 69 29.7321 69 30.2268C69 30.5815 69.098 30.8708 69.294 31.0948C69.4993 31.3188 69.7467 31.4915 70.036 31.6128C70.3347 31.7248 70.75 31.8555 71.282 32.0048C71.926 32.1821 72.444 32.3595 72.836 32.5368C73.228 32.7048 73.564 32.9708 73.844 33.3348C74.124 33.6895 74.264 34.1748 74.264 34.7908C74.264 35.2668 74.138 35.7148 73.886 36.1348C73.634 36.5548 73.2607 36.8955 72.766 37.1568C72.2713 37.4181 71.688 37.5488 71.016 37.5488ZM85.7848 29.6388C86.3821 29.6388 86.9141 29.7648 87.3808 30.0168C87.8474 30.2595 88.2161 30.6281 88.4868 31.1228C88.7574 31.6175 88.8928 32.2195 88.8928 32.9288V37.4508H87.6328V33.1108C87.6328 32.3455 87.4414 31.7621 87.0588 31.3608C86.6854 30.9501 86.1768 30.7448 85.5328 30.7448C84.8701 30.7448 84.3428 30.9595 83.9508 31.3888C83.5588 31.8088 83.3628 32.4201 83.3628 33.2228V37.4508H82.1028V33.1108C82.1028 32.3455 81.9114 31.7621 81.5288 31.3608C81.1554 30.9501 80.6468 30.7448 80.0028 30.7448C79.3401 30.7448 78.8128 30.9595 78.4208 31.3888C78.0288 31.8088 77.8328 32.4201 77.8328 33.2228V37.4508H76.5588V29.7788H77.8328V30.8848C78.0848 30.4835 78.4208 30.1755 78.8408 29.9608C79.2701 29.7461 79.7414 29.6388 80.2548 29.6388C80.8988 29.6388 81.4681 29.7835 81.9628 30.0728C82.4574 30.3621 82.8261 30.7868 83.0688 31.3468C83.2834 30.8055 83.6381 30.3855 84.1328 30.0868C84.6274 29.7881 85.1781 29.6388 85.7848 29.6388ZM90.9266 33.5868C90.9266 32.8028 91.0853 32.1168 91.4026 31.5288C91.7199 30.9315 92.1539 30.4695 92.7046 30.1428C93.2646 29.8161 93.8853 29.6528 94.5666 29.6528C95.2386 29.6528 95.8219 29.7975 96.3166 30.0868C96.8113 30.3761 97.1799 30.7401 97.4226 31.1788V29.7788H98.7106V37.4508H97.4226V36.0228C97.1706 36.4708 96.7926 36.8441 96.2886 37.1428C95.7939 37.4321 95.2153 37.5768 94.5526 37.5768C93.8713 37.5768 93.2553 37.4088 92.7046 37.0728C92.1539 36.7368 91.7199 36.2655 91.4026 35.6588C91.0853 35.0521 90.9266 34.3615 90.9266 33.5868ZM97.4226 33.6008C97.4226 33.0221 97.3059 32.5181 97.0726 32.0888C96.8393 31.6595 96.5219 31.3328 96.1206 31.1088C95.7286 30.8755 95.2946 30.7588 94.8186 30.7588C94.3426 30.7588 93.9086 30.8708 93.5166 31.0948C93.1246 31.3188 92.8119 31.6455 92.5786 32.0748C92.3453 32.5041 92.2286 33.0081 92.2286 33.5868C92.2286 34.1748 92.3453 34.6881 92.5786 35.1268C92.8119 35.5561 93.1246 35.8875 93.5166 36.1208C93.9086 36.3448 94.3426 36.4568 94.8186 36.4568C95.2946 36.4568 95.7286 36.3448 96.1206 36.1208C96.5219 35.8875 96.8393 35.5561 97.0726 35.1268C97.3059 34.6881 97.4226 34.1795 97.4226 33.6008ZM102.558 31.0248C102.782 30.5861 103.099 30.2455 103.51 30.0028C103.93 29.7601 104.438 29.6388 105.036 29.6388V30.9548H104.7C103.272 30.9548 102.558 31.7295 102.558 33.2788V37.4508H101.284V29.7788H102.558V31.0248ZM108.48 30.8288V35.3508C108.48 35.7241 108.56 35.9901 108.718 36.1488C108.877 36.2981 109.152 36.3728 109.544 36.3728H110.482V37.4508H109.334C108.625 37.4508 108.093 37.2875 107.738 36.9608C107.384 36.6341 107.206 36.0975 107.206 35.3508V30.8288H106.212V29.7788H107.206V27.8468H108.48V29.7788H110.482V30.8288H108.48ZM117.256 28.5328C117.014 28.5328 116.808 28.4488 116.64 28.2808C116.472 28.1128 116.388 27.9075 116.388 27.6648C116.388 27.4221 116.472 27.2168 116.64 27.0488C116.808 26.8808 117.014 26.7968 117.256 26.7968C117.49 26.7968 117.686 26.8808 117.844 27.0488C118.012 27.2168 118.096 27.4221 118.096 27.6648C118.096 27.9075 118.012 28.1128 117.844 28.2808C117.686 28.4488 117.49 28.5328 117.256 28.5328ZM117.872 29.7788V37.4508H116.598V29.7788H117.872ZM124.202 29.6388C125.135 29.6388 125.891 29.9235 126.47 30.4928C127.048 31.0528 127.338 31.8648 127.338 32.9288V37.4508H126.078V33.1108C126.078 32.3455 125.886 31.7621 125.504 31.3608C125.121 30.9501 124.598 30.7448 123.936 30.7448C123.264 30.7448 122.727 30.9548 122.326 31.3748C121.934 31.7948 121.738 32.4061 121.738 33.2088V37.4508H120.464V29.7788H121.738V30.8708C121.99 30.4788 122.33 30.1755 122.76 29.9608C123.198 29.7461 123.679 29.6388 124.202 29.6388ZM139.997 27.6928V28.7288H137.337V37.4508H136.063V28.7288H133.389V27.6928H139.997ZM145.793 29.6388C146.372 29.6388 146.895 29.7648 147.361 30.0168C147.828 30.2595 148.192 30.6281 148.453 31.1228C148.724 31.6175 148.859 32.2195 148.859 32.9288V37.4508H147.599V33.1108C147.599 32.3455 147.408 31.7621 147.025 31.3608C146.643 30.9501 146.12 30.7448 145.457 30.7448C144.785 30.7448 144.249 30.9548 143.847 31.3748C143.455 31.7948 143.259 32.4061 143.259 33.2088V37.4508H141.985V27.0908H143.259V30.8708C143.511 30.4788 143.857 30.1755 144.295 29.9608C144.743 29.7461 145.243 29.6388 145.793 29.6388ZM152.018 28.5328C151.776 28.5328 151.57 28.4488 151.402 28.2808C151.234 28.1128 151.15 27.9075 151.15 27.6648C151.15 27.4221 151.234 27.2168 151.402 27.0488C151.57 26.8808 151.776 26.7968 152.018 26.7968C152.252 26.7968 152.448 26.8808 152.606 27.0488C152.774 27.2168 152.858 27.4221 152.858 27.6648C152.858 27.9075 152.774 28.1128 152.606 28.2808C152.448 28.4488 152.252 28.5328 152.018 28.5328ZM152.634 29.7788V37.4508H151.36V29.7788H152.634ZM157.942 37.5768C157.354 37.5768 156.826 37.4788 156.36 37.2828C155.893 37.0775 155.524 36.7975 155.254 36.4428C154.983 36.0788 154.834 35.6635 154.806 35.1968H156.122C156.159 35.5795 156.336 35.8921 156.654 36.1348C156.98 36.3775 157.405 36.4988 157.928 36.4988C158.413 36.4988 158.796 36.3915 159.076 36.1768C159.356 35.9621 159.496 35.6915 159.496 35.3648C159.496 35.0288 159.346 34.7815 159.048 34.6228C158.749 34.4548 158.287 34.2915 157.662 34.1328C157.092 33.9835 156.626 33.8341 156.262 33.6848C155.907 33.5261 155.599 33.2975 155.338 32.9988C155.086 32.6908 154.96 32.2895 154.96 31.7948C154.96 31.4028 155.076 31.0435 155.31 30.7168C155.543 30.3901 155.874 30.1335 156.304 29.9468C156.733 29.7508 157.223 29.6528 157.774 29.6528C158.623 29.6528 159.309 29.8675 159.832 30.2968C160.354 30.7261 160.634 31.3141 160.672 32.0608H159.398C159.37 31.6595 159.206 31.3375 158.908 31.0948C158.618 30.8521 158.226 30.7308 157.732 30.7308C157.274 30.7308 156.91 30.8288 156.64 31.0248C156.369 31.2208 156.234 31.4775 156.234 31.7948C156.234 32.0468 156.313 32.2568 156.472 32.4248C156.64 32.5835 156.845 32.7141 157.088 32.8168C157.34 32.9101 157.685 33.0175 158.124 33.1388C158.674 33.2881 159.122 33.4375 159.468 33.5868C159.813 33.7268 160.107 33.9415 160.35 34.2308C160.602 34.5201 160.732 34.8981 160.742 35.3648C160.742 35.7848 160.625 36.1628 160.392 36.4988C160.158 36.8348 159.827 37.1008 159.398 37.2968C158.978 37.4835 158.492 37.5768 157.942 37.5768ZM168.387 28.7288V31.9908H171.943V33.0408H168.387V36.4008H172.363V37.4508H167.113V27.6788H172.363V28.7288H168.387ZM175.984 31.0248C176.208 30.5861 176.526 30.2455 176.936 30.0028C177.356 29.7601 177.865 29.6388 178.462 29.6388V30.9548H178.126C176.698 30.9548 175.984 31.7295 175.984 33.2788V37.4508H174.71V29.7788H175.984V31.0248ZM179.877 33.5868C179.877 32.8028 180.036 32.1168 180.353 31.5288C180.67 30.9315 181.104 30.4695 181.655 30.1428C182.215 29.8161 182.836 29.6528 183.517 29.6528C184.189 29.6528 184.772 29.7975 185.267 30.0868C185.762 30.3761 186.13 30.7401 186.373 31.1788V29.7788H187.661V37.4508H186.373V36.0228C186.121 36.4708 185.743 36.8441 185.239 37.1428C184.744 37.4321 184.166 37.5768 183.503 37.5768C182.822 37.5768 182.206 37.4088 181.655 37.0728C181.104 36.7368 180.67 36.2655 180.353 35.6588C180.036 35.0521 179.877 34.3615 179.877 33.5868ZM186.373 33.6008C186.373 33.0221 186.256 32.5181 186.023 32.0888C185.79 31.6595 185.472 31.3328 185.071 31.1088C184.679 30.8755 184.245 30.7588 183.769 30.7588C183.293 30.7588 182.859 30.8708 182.467 31.0948C182.075 31.3188 181.762 31.6455 181.529 32.0748C181.296 32.5041 181.179 33.0081 181.179 33.5868C181.179 34.1748 181.296 34.6881 181.529 35.1268C181.762 35.5561 182.075 35.8875 182.467 36.1208C182.859 36.3448 183.293 36.4568 183.769 36.4568C184.245 36.4568 184.679 36.3448 185.071 36.1208C185.472 35.8875 185.79 35.5561 186.023 35.1268C186.256 34.6881 186.373 34.1795 186.373 33.6008Z" fill="#9EA5BB"/>
<path d="M31.0023 38.329C30.0119 40.4815 28.0477 42.3081 25.9288 43.5727C24.2605 44.5684 15.9445 44.5098 14.1496 43.766C11.5157 42.6747 8.83106 41.0491 8.03115 38.8586C6.29091 34.0928 10.1194 34.6224 11.1636 35.1519C12.2077 35.6814 16.0362 37.7995 19.1687 37.7995C22.3011 37.7995 24.7374 36.4756 26.1296 35.4166C27.5218 34.3575 33.4386 33.0337 31.0023 38.329Z" fill="#5E4EC2"/>
<path d="M34.584 27.4508V17.4508C34.584 16.3462 33.6886 15.4508 32.584 15.4508C31.4794 15.4508 30.584 16.3462 30.584 17.4508V27.4508C30.584 28.5554 31.4794 29.4508 32.584 29.4508C33.6886 29.4508 34.584 28.5554 34.584 27.4508Z" fill="#5E4EC2"/>
<rect y="19.413" width="25.5017" height="26.5253" rx="4" transform="rotate(-49.5738 0 19.413)" fill="#5E4EC2"/>
</svg>
