<svg width="256" height="256" viewBox="0 0 256 256" fill="none" xmlns="http://www.w3.org/2000/svg">
<path d="M95.7601 165.031C96.4243 165.535 97.1804 165.902 97.9852 166.111C98.79 166.32 99.6276 166.366 100.45 166.247C101.273 166.129 102.064 165.848 102.779 165.42C103.494 164.992 104.118 164.426 104.616 163.754C108.442 158.6 113.404 154.416 119.108 151.535C124.813 148.654 131.103 147.154 137.48 147.154C143.857 147.154 150.147 148.654 155.852 151.535C161.556 154.416 166.518 158.6 170.344 163.754C170.842 164.425 171.466 164.99 172.18 165.417C172.894 165.844 173.685 166.125 174.506 166.244C175.328 166.362 176.165 166.316 176.969 166.108C177.772 165.9 178.528 165.534 179.192 165.031C179.856 164.528 180.415 163.897 180.838 163.176C181.261 162.455 181.539 161.656 181.656 160.826C181.774 159.996 181.728 159.151 181.522 158.339C181.316 157.526 180.954 156.763 180.456 156.092C174.86 148.513 167.397 142.545 158.81 138.782C163.516 134.442 166.813 128.765 168.268 122.498C169.724 116.231 169.27 109.665 166.966 103.664C164.661 97.6618 160.615 92.5039 155.357 88.8669C150.099 85.2299 143.876 83.2836 137.504 83.2836C131.131 83.2836 124.908 85.2299 119.65 88.8669C114.393 92.5039 110.346 97.6618 108.042 103.664C105.738 109.665 105.284 116.231 106.739 122.498C108.194 128.765 111.491 134.442 116.197 138.782C107.593 142.538 100.113 148.506 94.504 156.092C93.4975 157.446 93.0643 159.148 93.2999 160.824C93.5354 162.501 94.4204 164.014 95.7601 165.031ZM118.52 115.231C118.52 111.442 119.632 107.739 121.715 104.589C123.799 101.44 126.76 98.9846 130.224 97.5349C133.689 96.0852 137.501 95.7059 141.179 96.445C144.857 97.184 148.235 99.0082 150.887 101.687C153.538 104.366 155.344 107.779 156.076 111.494C156.807 115.21 156.432 119.061 154.997 122.561C153.562 126.061 151.132 129.052 148.014 131.157C144.896 133.261 141.23 134.385 137.48 134.385C132.451 134.385 127.629 132.367 124.073 128.775C120.518 125.183 118.52 120.311 118.52 115.231ZM194.36 45H80.6C77.2477 45 74.0326 46.3453 71.6622 48.74C69.2917 51.1347 67.96 54.3826 67.96 57.7692V76.9231H55.32C53.6438 76.9231 52.0363 77.5957 50.8511 78.7931C49.6659 79.9904 49 81.6144 49 83.3077C49 85.001 49.6659 86.6249 50.8511 87.8223C52.0363 89.0196 53.6438 89.6923 55.32 89.6923H67.96V121.615H55.32C53.6438 121.615 52.0363 122.288 50.8511 123.485C49.6659 124.683 49 126.307 49 128C49 129.693 49.6659 131.317 50.8511 132.515C52.0363 133.712 53.6438 134.385 55.32 134.385H67.96V166.308H55.32C53.6438 166.308 52.0363 166.98 50.8511 168.178C49.6659 169.375 49 170.999 49 172.692C49 174.386 49.6659 176.01 50.8511 177.207C52.0363 178.404 53.6438 179.077 55.32 179.077H67.96V198.231C67.96 201.617 69.2917 204.865 71.6622 207.26C74.0326 209.655 77.2477 211 80.6 211H194.36C197.712 211 200.927 209.655 203.298 207.26C205.668 204.865 207 201.617 207 198.231V57.7692C207 54.3826 205.668 51.1347 203.298 48.74C200.927 46.3453 197.712 45 194.36 45ZM194.36 198.231H80.6V57.7692H194.36V198.231Z" fill="black"/>
</svg>
