<svg width="100" height="100" viewBox="0 0 100 100" fill="none" xmlns="http://www.w3.org/2000/svg">
<path d="M82.9936 1.9624H17.2139C8.75651 1.9624 1.9436 8.7753 1.9436 17.2327V83.0124C1.9436 91.4698 8.75651 98.2827 17.2139 98.2827H82.9936C91.451 98.2827 98.2639 91.4698 98.2639 83.0124V17.2327C98.2639 8.7753 91.451 1.9624 82.9936 1.9624ZM17.2139 4.31168H48.9291V48.9479H4.29288V17.2327C4.29288 10.0674 10.0486 4.31168 17.2139 4.31168ZM4.29288 83.0124V51.2972H48.9291V95.9335H17.2139C10.0486 95.9335 4.29288 90.1777 4.29288 83.0124ZM82.9936 95.9335H51.2784V51.2972H95.9147V83.0124C95.9147 90.1777 90.1589 95.9335 82.9936 95.9335ZM95.9147 48.9479H51.2784V4.31168H82.9936C90.1589 4.31168 95.9147 10.0674 95.9147 17.2327V48.9479Z" fill="#5E4EC2"/>
<path d="M38.005 70.0916H27.4333V59.5199C27.4333 58.8151 26.9634 58.3452 26.2587 58.3452C25.5539 58.3452 25.084 58.8151 25.084 59.5199V70.0916H14.5123C13.8075 70.0916 13.3376 70.5615 13.3376 71.2662C13.3376 71.971 13.8075 72.4409 14.5123 72.4409H25.084V83.0126C25.084 83.7174 25.5539 84.1873 26.2587 84.1873C26.9634 84.1873 27.4333 83.7174 27.4333 83.0126V72.4409H38.005C38.7098 72.4409 39.1797 71.971 39.1797 71.2662C39.1797 70.5615 38.7098 70.0916 38.005 70.0916Z" fill="#5E4EC2"/>
<path d="M14.5123 28.6266H38.005C38.7098 28.6266 39.1797 28.1568 39.1797 27.452C39.1797 26.7472 38.7098 26.2773 38.005 26.2773H14.5123C13.8075 26.2773 13.3376 26.7472 13.3376 27.452C13.3376 28.1568 13.925 28.6266 14.5123 28.6266Z" fill="#5E4EC2"/>
<path d="M84.6381 78.314H61.1453C60.4406 78.314 59.9707 78.7838 59.9707 79.4886C59.9707 80.1934 60.4406 80.6632 61.1453 80.6632H84.6381C85.3429 80.6632 85.8127 80.1934 85.8127 79.4886C85.8127 78.7838 85.2254 78.314 84.6381 78.314Z" fill="#5E4EC2"/>
<path d="M84.6381 65.3931H61.1453C60.4406 65.3931 59.9707 65.8629 59.9707 66.5677C59.9707 67.2725 60.4406 67.7423 61.1453 67.7423H84.6381C85.3429 67.7423 85.8127 67.2725 85.8127 66.5677C85.8127 65.9804 85.2254 65.3931 84.6381 65.3931Z" fill="#5E4EC2"/>
<path d="M81.9365 18.2899C81.4666 17.82 80.7618 17.82 80.292 18.2899L72.7743 25.8076L65.3741 18.2899C64.9042 17.82 64.1994 17.82 63.7296 18.2899C63.2597 18.7597 63.2597 19.4645 63.7296 19.9344L71.2473 27.4521L63.7296 34.8523C63.2597 35.3221 63.2597 36.0269 63.7296 36.4968C63.9645 36.7317 64.3169 36.8492 64.5518 36.8492C64.7868 36.8492 65.1392 36.7317 65.3741 36.4968L72.8918 28.9791L80.4095 36.4968C80.6444 36.7317 80.9968 36.8492 81.2317 36.8492C81.4666 36.8492 81.819 36.7317 82.0539 36.4968C82.5238 36.0269 82.5238 35.3221 82.0539 34.8523L74.5363 27.3346L82.0539 19.8169C82.4063 19.4645 82.4063 18.7597 81.9365 18.2899Z" fill="#5E4EC2"/>
</svg>
