<svg width="200" height="200" viewBox="0 0 200 200" fill="none" xmlns="http://www.w3.org/2000/svg">
<path d="M69.711 30C71.0106 30 72.2569 30.5162 73.1758 31.4352C74.0948 32.3541 74.611 33.6004 74.611 34.9V44.063H127.23V34.963C127.23 33.6634 127.746 32.4171 128.665 31.4982C129.584 30.5792 130.83 30.063 132.13 30.063C133.43 30.063 134.676 30.5792 135.595 31.4982C136.514 32.4171 137.03 33.6634 137.03 34.963V44.063H156C159.712 44.063 163.272 45.537 165.897 48.161C168.522 50.785 169.998 54.3442 170 58.056V156.007C169.998 159.719 168.522 163.278 165.897 165.902C163.272 168.526 159.712 170 156 170H44C40.2882 170 36.7283 168.526 34.103 165.902C31.4777 163.278 30.0019 159.719 30 156.007V58.056C30.0019 54.3442 31.4777 50.785 34.103 48.161C36.7283 45.537 40.2882 44.063 44 44.063H64.811V34.893C64.8129 33.5947 65.3299 32.3501 66.2487 31.4327C67.1674 30.5153 68.4127 30 69.711 30ZM39.8 84.194V156.007C39.8 156.559 39.9086 157.105 40.1197 157.614C40.3308 158.124 40.6401 158.587 41.0302 158.977C41.4202 159.367 41.8832 159.676 42.3927 159.887C42.9023 160.098 43.4484 160.207 44 160.207H156C156.552 160.207 157.098 160.098 157.607 159.887C158.117 159.676 158.58 159.367 158.97 158.977C159.36 158.587 159.669 158.124 159.88 157.614C160.091 157.105 160.2 156.559 160.2 156.007V84.292L39.8 84.194ZM76.669 132.333V143.995H65V132.333H76.669ZM105.831 132.333V143.995H94.169V132.333H105.831ZM135 132.333V143.995H123.331V132.333H135ZM76.669 104.494V116.156H65V104.494H76.669ZM105.831 104.494V116.156H94.169V104.494H105.831ZM135 104.494V116.156H123.331V104.494H135ZM64.811 53.856H44C43.4484 53.856 42.9023 53.9646 42.3927 54.1757C41.8832 54.3868 41.4202 54.6961 41.0302 55.0862C40.6401 55.4762 40.3308 55.9392 40.1197 56.4487C39.9086 56.9583 39.8 57.5044 39.8 58.056V74.401L160.2 74.499V58.056C160.2 57.5044 160.091 56.9583 159.88 56.4487C159.669 55.9392 159.36 55.4762 158.97 55.0862C158.58 54.6961 158.117 54.3868 157.607 54.1757C157.098 53.9646 156.552 53.856 156 53.856H137.03V60.359C137.03 61.6586 136.514 62.9049 135.595 63.8238C134.676 64.7428 133.43 65.259 132.13 65.259C130.83 65.259 129.584 64.7428 128.665 63.8238C127.746 62.9049 127.23 61.6586 127.23 60.359V53.856H74.611V60.296C74.611 61.5956 74.0948 62.8419 73.1758 63.7608C72.2569 64.6798 71.0106 65.196 69.711 65.196C68.4114 65.196 67.1651 64.6798 66.2462 63.7608C65.3272 62.8419 64.811 61.5956 64.811 60.296V53.856Z" fill="black"/>
</svg>
